# xmcd
#
# Track frame offsets:
# 150
# 19212
# 35806
# 51137
# 70231
# 82466
# 101370
# 121993
# 135821
# 147938
# 165213
# 178777
# 193484
# 211990
# 230515
#
# Disc length: 3349 seconds
#
#
# Revision: 0
# Processed by: cddbd v1.5PL3 Copyright (c) Steve Scherf et al.
# Submitted via: FreeRIP 2.53 
#
DISCID=d70d130f
DTITLE=Blaze Foley (Various Artists) - Blaze Foley - Blaza a blaze - BFI Too
DYEAR=1900
DGENRE=Country
TTITLE0=Let me ride in your big cadillac - David waddell
TTITLE1=Clay Pigeons - Julieann banks
TTITLE2=It's just you - Calvin Russel
TTITLE3=Misty garden - Shiva's headband
TTITLE4=Faded lives and memories - Richard Dobson
TTITLE5=Officer Norris - De Lewellen
TTITLE6=The way you smile - John Casner
TTITLE7=Alibis - Tom Smith
TTITLE8=No goodwill stores in Waikiki - Jim Stricklan
TTITLE9=Blue Love - George Enslé
TTITLE10=Election day - Sheri Frushay
TTITLE11=Down here where i am - Harvey thomas Young
TTITLE12=Oval room - Rachel Rain
TTITLE13=WW3 - The Rythm Rats
TTITLE14=Codl, cold world - Elliot Rogers
EXTD=
EXTT0=
EXTT1=
EXTT2=
EXTT3=
EXTT4=
EXTT5=
EXTT6=
EXTT7=
EXTT8=
EXTT9=
EXTT10=
EXTT11=
EXTT12=
EXTT13=
EXTT14=
PLAYORDER=
